<?xml version="1.0" encoding="UTF-8"?><svg id="Layer_2" xmlns="http://www.w3.org/2000/svg" viewBox="0 0 172.64 195.84"><defs><style>.cls-1{fill:#43ce8b;}.cls-2{fill:#b3b3b3;}</style></defs><g id="Layer_1-2"><path class="cls-2" d="M0,180.97C0,189.43,5.9,195.84,13.91,195.84h15.52v-3.89h-15.52c-5.81,0-10.02-4.61-10.02-10.79s4.25-10.58,10.02-10.58h15.52v-3.89h-15.52C5.9,166.69,0,172.39,0,180.97Z"/><polygon class="cls-2" points="49.81 180.73 37.21 166.69 31.96 166.69 47.72 184.26 47.72 195.84 51.61 195.84 51.61 184.26 67.41 166.69 62.44 166.69 49.81 180.73"/><path class="cls-2" d="M96.74,180.53c2.44-.13,4.39-2.53,4.39-6.38,0-4.89-3.57-7.46-9.06-7.46h-21.21v29.15h21.65c6.52,0,9.1-2.99,9.1-8.38,0-3.56-1.87-5.97-4.88-6.93ZM90.51,170.58c4.65,0,6.7.92,6.7,4.33,0,3.21-1.68,4.29-5.21,4.29h-17.24v-8.62h15.76ZM90.71,191.95h-15.96v-9.14h17.52c3.45,0,5.45,1.6,5.45,4.53,0,4.01-2.64,4.61-7.02,4.61Z"/><polygon class="cls-2" points="112.45 182.81 132.06 182.81 132.06 179.2 112.45 179.2 112.45 170.58 134.15 170.58 134.15 166.69 108.56 166.69 108.56 195.84 134.19 195.84 134.19 191.95 112.45 191.95 112.45 182.81"/><path class="cls-2" d="M167.11,195.84h5.53l-12.92-13h1.84c1.13,0,3.53-.1,4.78-.3,2.03-.34,5.71-1.78,5.71-7.56s-3.81-8.29-10.27-8.29h-20.69v29.15h3.89v-13h9.66l12.47,13ZM144.98,170.58h16.8c4.05,0,6.42.83,6.42,4.4,0,4.49-2.95,4.25-7.77,4.25h-15.45v-8.66Z"/><polygon class="cls-1" points="82.9 81.21 60.25 81.21 17.16 117.37 17.16 81.21 0 81.21 0 156.53 17.16 156.53 17.16 118.63 60.21 156.53 83.35 156.53 38.14 118.09 82.9 81.21"/><path class="cls-1" d="M105.75,132.6c0-5.08,3.57-7.98,9.91-7.98h28.24c16.48,0,26.62-8.91,26.62-21.65s-9.45-21.76-26.85-21.76h-56.65v13.67h56.65c5.07,0,8.3,3.59,8.3,8.25s-3.34,8.75-8.3,8.75h-29.5c-17.52,0-26.85,7.04-26.85,22.07v22.58h81.82v-13.17h-63.38v-10.76Z"/><path class="cls-2" d="M161.43,72.58c-.61,0-1.18.18-1.67.48l-13.96-11.17-11.57-20.23c-.04-.08-.1-.15-.16-.21l-12.34-12.34-8.07-20.44c-.08-.21-.24-.39-.43-.5l-13.44-7.66c-.12-.07-.26-.11-.39-.13L95.64,0c-.29-.03-.58.07-.79.27l-19.63,18.54-9.93,5.37c-.15.08-.27.19-.36.33l-20.22,31.1h-16.02c-.22,0-.43.07-.6.2l-20.03,15.19c-.5-.33-1.1-.53-1.75-.53-1.77,0-3.2,1.43-3.2,3.2s1.43,3.2,3.2,3.2,3.2-1.43,3.2-3.2c0-.39-.08-.76-.21-1.1l19.73-14.96h16.22c.34,0,.65-.17.84-.45l20.38-31.34,9.82-5.31c.08-.04.15-.09.21-.15l13.03-12.31-10.28,12.96-12.07,7.47c-.13.08-.24.19-.32.32l-20.36,32.43-12.66,2.06c-.21.03-.4.13-.55.28l-6.93,7,.08.08c-.3-.09-.61-.16-.94-.16-1.77,0-3.2,1.43-3.2,3.2s1.43,3.2,3.2,3.2,3.2-1.43,3.2-3.2c0-.74-.26-1.41-.68-1.95l6.47-6.53,12.79-2.08c.28-.05.53-.21.69-.46l20.47-32.61,12.02-7.44c.1-.06.18-.14.26-.23l13.84-17.43-.69,1.24-10.32,16.77-13.75,8.3c-.14.08-.25.2-.34.33l-21.61,35.25-10.22,3.24c-.28.09-.51.3-.62.57l-4.91,11.93-5.31,5.22c-.39-.17-.82-.27-1.27-.27-1.77,0-3.2,1.43-3.2,3.2s1.43,3.2,3.2,3.2,3.2-1.43,3.2-3.2c0-.58-.17-1.12-.44-1.58l5.37-5.28c.1-.09.17-.21.22-.33l4.81-11.69,10.13-3.21c.23-.07.42-.23.55-.43l13.24-21.59-9.38,22.46-7.52,10c-.23-.05-.47-.09-.72-.09-1.77,0-3.2,1.43-3.2,3.2s1.43,3.2,3.2,3.2,3.2-1.43,3.2-3.2c0-.79-.3-1.5-.77-2.06l7.48-9.95c.05-.07.09-.14.12-.22l14.39-34.44,1.64-2.68,12.08-7.29-2.76,4.97c-.21.37-.16.83.13,1.15l5.2,5.81,3.82,10.4c-.69.59-1.13,1.45-1.13,2.42,0,1.77,1.43,3.2,3.2,3.2s3.2-1.43,3.2-3.2-1.43-3.2-3.2-3.2c-.07,0-.14.02-.21.02l-3.86-10.52c-.04-.12-.11-.23-.19-.32l-4.85-5.42,13.14-23.66,2.55-4.14,10.76,9.24,6.43,21.17c.05.18.16.34.3.46l13.12,11.52,9.66,23.76c-.63.58-1.04,1.41-1.04,2.34,0,1.77,1.43,3.2,3.2,3.2s3.2-1.43,3.2-3.2-1.43-3.2-3.2-3.2c-.11,0-.22.02-.34.03l-9.72-23.92c-.06-.14-.15-.27-.27-.38l-13.09-11.49-6.43-21.17c-.06-.18-.16-.34-.31-.47l-7.4-6.36,8.93,5.09,8.02,20.3c.05.13.13.24.22.34l12.39,12.39,11.6,20.28c.06.11.15.21.24.28l14.06,11.25c-.15.37-.23.77-.23,1.19,0,1.77,1.43,3.2,3.2,3.2s3.2-1.43,3.2-3.2-1.43-3.2-3.2-3.2Z"/></g></svg>